# xmcd
#
# Track frame offsets: 
#        150
#        27131
#        46575
#        75331
#        101214
#        128841
#        161472
#        189845
#        209208
#        235372
#        264886
#
# Disc length: 3780 seconds
#
# Revision: 0
# Processed by: cddbd v1.5.2PL0 Copyright (c) Steve Scherf et al.
# Submitted via: ExactAudioCopy v1.0b4
#
DISCID=850ec20b
DTITLE=Roger Chapman and The Shortlist - Live At Grugahalle 1981 [disk1]
DYEAR=2014
DGENRE=Blues Rock
TTITLE0=Who Pulled The Nite Down
TTITLE1=Keep Forgettin'
TTITLE2=Unknown Soldier
TTITLE3=Ducking Down
TTITLE4=I Just Want To Make Love To You
TTITLE5=Killing Time
TTITLE6=He Was, She Was
TTITLE7=Hang On To A Dream
TTITLE8=Prisoner
TTITLE9=Short List
TTITLE10=Hyenas Only Laugh For Fun
EXTD=
EXTT0=
EXTT1=
EXTT2=
EXTT3=
EXTT4=
EXTT5=
EXTT6=
EXTT7=
EXTT8=
EXTT9=
EXTT10=
PLAYORDER=
